<?xml version="1.0" standalone="yes"?>
<svg xmlns="http://www.w3.org/2000/svg" width="126" height="167">
<path style="fill:#fefefe; stroke:none;" d="M0 0L0 167L126 167L126 0L0 0z"/>
<path style="fill:#525151; stroke:none;" d="M51.6667 15.3333L52.3333 15.6667L51.6667 15.3333z"/>
<path style="fill:#211f1f; stroke:none;" d="M53.0586 15.8588C47.0591 16.9368 49 26.5886 49 31L49 80L49 127C49 131.109 47.3169 140.153 50.6034 143.243C53.6267 146.085 60.4016 143.789 64 143.271C76.8763 141.415 90.2714 140.5 102.985 137.786C109.821 136.327 109 129.547 109 124L109 84L109 42C109 37.3092 110.476 29.412 107.821 25.3032C105.422 21.5913 98.8857 21.8308 95 21.2708C82.7962 19.5123 65.1712 13.6825 53.0586 15.8588z"/>
<path style="fill:#525151; stroke:none;" d="M54.6667 15.3333L55.3333 15.6667L54.6667 15.3333z"/>
<path style="fill:#949293; stroke:none;" d="M56 15L57 16L56 15z"/>
<path style="fill:#a9a9a9; stroke:none;" d="M57.6667 15.3333L58.3333 15.6667L57.6667 15.3333M49 16L50 17L49 16z"/>
<path style="fill:#525151; stroke:none;" d="M60 16L60 17L63 17L60 16z"/>
<path style="fill:#949293; stroke:none;" d="M63 16L64 17L63 16z"/>
<path style="fill:#a9a9a9; stroke:none;" d="M64.6667 16.3333L65.3333 16.6667L64.6667 16.3333z"/>
<path style="fill:#525151; stroke:none;" d="M68.6667 17.3333L69.3333 17.6667L68.6667 17.3333z"/>
<path style="fill:#949293; stroke:none;" d="M70 17L71 18L70 17z"/>
<path style="fill:#a9a9a9; stroke:none;" d="M71.6667 17.3333L72.3333 17.6667L71.6667 17.3333z"/>
<path style="fill:#949293; stroke:none;" d="M48 18L49 19L48 18z"/>
<path style="fill:#525151; stroke:none;" d="M74 18L74 19L77 19L74 18z"/>
<path style="fill:#949293; stroke:none;" d="M77 18L78 19L77 18z"/>
<path style="fill:#a9a9a9; stroke:none;" d="M78.6667 18.3333L79.3333 18.6667L78.6667 18.3333z"/>
<path style="fill:#525151; stroke:none;" d="M48 19L48 142L49 142L49 56C49 45.3661 52.1077 28.7892 48 19M82.6667 19.3333L83.3333 19.6667L82.6667 19.3333z"/>
<path style="fill:#949293; stroke:none;" d="M84 19L85 20L84 19z"/>
<path style="fill:#a9a9a9; stroke:none;" d="M85.6667 19.3333L86.3333 19.6667L85.6667 19.3333z"/>
<path style="fill:#525151; stroke:none;" d="M89.6667 20.3333L90.3333 20.6667L89.6667 20.3333z"/>
<path style="fill:#949293; stroke:none;" d="M91 20L92 21L91 20z"/>
<path style="fill:#a9a9a9; stroke:none;" d="M92.6667 20.3333L93.3333 20.6667L92.6667 20.3333z"/>
<path style="fill:#525151; stroke:none;" d="M96.6667 21.3333L97.3333 21.6667L96.6667 21.3333z"/>
<path style="fill:#949293; stroke:none;" d="M98.6667 21.3333L99.3333 21.6667L98.6667 21.3333z"/>
<path style="fill:#a9a9a9; stroke:none;" d="M100 21L101 22L100 21M17 22L15 25L17 22z"/>
<path style="fill:#525151; stroke:none;" d="M18.6667 22.3333L19.3333 22.6667L18.6667 22.3333z"/>
<path style="fill:#211f1f; stroke:none;" d="M37 138L45 138L45 132C39.69 132 26.5827 134.376 22.6034 130.397C18.1974 125.991 21 109.932 21 104L21 28L45 28L45 22C38.245 22 21.6128 18.9987 16.7423 24.5139C12.2528 29.5976 15 44.5483 15 51L15 109C15 116.159 12.9175 127.238 15.7423 133.892C18.5356 140.472 34.007 147.018 37 138z"/>
<path style="fill:#949293; stroke:none;" d="M45 22L45 28L46 28L45 22z"/>
<path style="fill:#525151; stroke:none;" d="M103.667 22.3333L104.333 22.6667L103.667 22.3333z"/>
<path style="fill:#949293; stroke:none;" d="M105 22L106 23L105 22z"/>
<path style="fill:#a9a9a9; stroke:none;" d="M106 22L107 23L106 22M107 23L108 24L107 23M108 24L109 25L108 24z"/>
<path style="fill:#525151; stroke:none;" d="M15 25L16 26L15 25M108 25L109 26L108 25M59 26L60 27L59 26z"/>
<path style="fill:#949293; stroke:none;" d="M58 27L59 28L58 27z"/>
<path style="fill:#fefefe; stroke:none;" d="M59 27C63.7168 41.1786 63.7168 52.8214 59 67C67.9692 61.8139 67.9272 32.1618 59 27z"/>
<path style="fill:#525151; stroke:none;" d="M61 27L62 28L61 27M21 28L22 29L21 28z"/>
<path style="fill:#a9a9a9; stroke:none;" d="M58 28L59 29L58 28z"/>
<path style="fill:#525151; stroke:none;" d="M62 28L63 29L62 28z"/>
<path style="fill:#a9a9a9; stroke:none;" d="M21 29L21 58L22 58L21 29z"/>
<path style="fill:#949293; stroke:none;" d="M59 29L60 30L59 29z"/>
<path style="fill:#a9a9a9; stroke:none;" d="M62 29L63 30L62 29M60 30L61 31L60 30z"/>
<path style="fill:#525151; stroke:none;" d="M60 31L61 32L60 31M63 31L64 32L63 31z"/>
<path style="fill:#a9a9a9; stroke:none;" d="M63 32L64 33L63 32M61 33L62 34L61 33z"/>
<path style="fill:#949293; stroke:none;" d="M61 34L62 35L61 34z"/>
<path style="fill:#525151; stroke:none;" d="M64.3333 34.6667L64.6667 35.3333L64.3333 34.6667M61.3333 35.6667L61.6667 36.3333L61.3333 35.6667z"/>
<path style="fill:#949293; stroke:none;" d="M64.3333 36.6667L64.6667 37.3333L64.3333 36.6667z"/>
<path style="fill:#a9a9a9; stroke:none;" d="M64 38L64 41L65 41L64 38M62 39L62 42L63 42L62 39z"/>
<path style="fill:#949293; stroke:none;" d="M62 42L62 52L63 52L62 42z"/>
<path style="fill:#525151; stroke:none;" d="M65 44L65 50L66 50L65 44z"/>
<path style="fill:#a9a9a9; stroke:none;" d="M62 52L62 55L63 55L62 52M64 54L64 57L65 57L64 54z"/>
<path style="fill:#525151; stroke:none;" d="M61.3333 57.6667L61.6667 58.3333L61.3333 57.6667z"/>
<path style="fill:#949293; stroke:none;" d="M64 57L65 58L64 57M21 58L22 59L21 58z"/>
<path style="fill:#525151; stroke:none;" d="M64.3333 58.6667L64.6667 59.3333L64.3333 58.6667z"/>
<path style="fill:#a9a9a9; stroke:none;" d="M21 59L21 130L22 130L22 81L21 59z"/>
<path style="fill:#525151; stroke:none;" d="M24 59L24 60L45 60L24 59z"/>
<path style="fill:#949293; stroke:none;" d="M45 59L45 63L46 63L45 59M61 59L62 60L61 59z"/>
<path style="fill:#211f1f; stroke:none;" d="M24 60L24 63L45 63L45 60L24 60z"/>
<path style="fill:#a9a9a9; stroke:none;" d="M61 60L62 61L61 60M63 61L64 62L63 61z"/>
<path style="fill:#525151; stroke:none;" d="M60 62L61 63L60 62z"/>
<path style="fill:#949293; stroke:none;" d="M63 62L64 63L63 62z"/>
<path style="fill:#a9a9a9; stroke:none;" d="M24 63L24 64L45 64L24 63z"/>
<path style="fill:#949293; stroke:none;" d="M60 63L61 64L60 63z"/>
<path style="fill:#525151; stroke:none;" d="M63 63L64 64L63 63M59 64L60 65L59 64z"/>
<path style="fill:#a9a9a9; stroke:none;" d="M62 64L63 65L62 64z"/>
<path style="fill:#949293; stroke:none;" d="M58 65L59 66L58 65z"/>
<path style="fill:#525151; stroke:none;" d="M62 65L63 66L62 65z"/>
<path style="fill:#a9a9a9; stroke:none;" d="M58 66L60 68L58 66M61 66L62 67L61 66z"/>
<path style="fill:#525151; stroke:none;" d="M58 67L59 68L58 67M60 67L61 68L60 67M24 97L24 98L45 98L24 97z"/>
<path style="fill:#a9a9a9; stroke:none;" d="M45 97L46 98L45 97z"/>
<path style="fill:#211f1f; stroke:none;" d="M24 98L24 101L45 101L45 98L24 98z"/>
<path style="fill:#949293; stroke:none;" d="M45 98L45 101L46 101L45 98z"/>
<path style="fill:#a9a9a9; stroke:none;" d="M24 101L24 102L45 102L24 101z"/>
<path style="fill:#949293; stroke:none;" d="M21 130L22 131L21 130M22 131L22 132L45 132L45 138C49.2128 127.595 27.7948 131 22 131z"/>
<path style="fill:#a9a9a9; stroke:none;" d="M45 131L46 132L45 131z"/>
<path style="fill:#525151; stroke:none;" d="M15 134L16 135L15 134M108 134L109 135L108 134z"/>
<path style="fill:#a9a9a9; stroke:none;" d="M15 135L16 136L15 135M108 135L109 136L108 135z"/>
<path style="fill:#949293; stroke:none;" d="M16 136L17 137L16 136M107 136L108 137L107 136z"/>
<path style="fill:#a9a9a9; stroke:none;" d="M17 137L18 138L17 137z"/>
<path style="fill:#525151; stroke:none;" d="M18 137L19 138L18 137M105 137L106 138L105 137z"/>
<path style="fill:#a9a9a9; stroke:none;" d="M106 137L107 138L106 137z"/>
<path style="fill:#525151; stroke:none;" d="M21 138L21 141L22 141L21 138M37.3333 138.667L37.6667 139.333L37.3333 138.667M97 138L97 139L100 139L97 138z"/>
<path style="fill:#949293; stroke:none;" d="M100 138L101 139L100 138z"/>
<path style="fill:#a9a9a9; stroke:none;" d="M101 138L102 139L101 138z"/>
<path style="fill:#525151; stroke:none;" d="M90.6667 139.333L91.3333 139.667L90.6667 139.333z"/>
<path style="fill:#949293; stroke:none;" d="M92.6667 139.333L93.3333 139.667L92.6667 139.333z"/>
<path style="fill:#a9a9a9; stroke:none;" d="M94.6667 139.333L95.3333 139.667L94.6667 139.333M37 140L38 141L37 140z"/>
<path style="fill:#525151; stroke:none;" d="M83.6667 140.333L84.3333 140.667L83.6667 140.333z"/>
<path style="fill:#949293; stroke:none;" d="M85 140L86 141L85 140z"/>
<path style="fill:#a9a9a9; stroke:none;" d="M86.6667 140.333L87.3333 140.667L86.6667 140.333z"/>
<path style="fill:#525151; stroke:none;" d="M22 141L23 142L22 141z"/>
<path style="fill:#949293; stroke:none;" d="M36 141L37 142L36 141z"/>
<path style="fill:#525151; stroke:none;" d="M76.6667 141.333L77.3333 141.667L76.6667 141.333z"/>
<path style="fill:#949293; stroke:none;" d="M78.6667 141.333L79.3333 141.667L78.6667 141.333z"/>
<path style="fill:#a9a9a9; stroke:none;" d="M80 141L81 142L80 141M23 142L23 143L36 143L23 142M48 142L49 143L48 142z"/>
<path style="fill:#525151; stroke:none;" d="M69.6667 142.333L70.3333 142.667L69.6667 142.333z"/>
<path style="fill:#949293; stroke:none;" d="M71 142L72 143L71 142z"/>
<path style="fill:#a9a9a9; stroke:none;" d="M72.6667 142.333L73.3333 142.667L72.6667 142.333M49 143L50 144L49 143z"/>
<path style="fill:#525151; stroke:none;" d="M62.6667 143.333L63.3333 143.667L62.6667 143.333z"/>
<path style="fill:#949293; stroke:none;" d="M64.6667 143.333L65.3333 143.667L64.6667 143.333z"/>
<path style="fill:#a9a9a9; stroke:none;" d="M66 143L67 144L66 143M50 144L51 145L50 144z"/>
<path style="fill:#525151; stroke:none;" d="M51 144L52 145L51 144M55.6667 144.333L56.3333 144.667L55.6667 144.333z"/>
<path style="fill:#949293; stroke:none;" d="M57 144L58 145L57 144z"/>
<path style="fill:#a9a9a9; stroke:none;" d="M58.6667 144.333L59.3333 144.667L58.6667 144.333z"/>
</svg>
