<?xml version="1.0" standalone="yes"?>
<svg xmlns="http://www.w3.org/2000/svg" width="580" height="386">
<path style="fill:#ffffff; stroke:none;" d="M0 0L0 386L580 386L580 0L0 0z"/>
<path style="fill:#a7607a; stroke:none;" d="M211 35L211 36L369 36C356.83 30.8935 335.253 35 322 35L211 35M206 36L207 37L206 36z"/>
<path style="fill:#65586c; stroke:none;" d="M207 36L208 37L207 36z"/>
<path style="fill:#343b5a; stroke:none;" d="M208 36.4676C177.829 42.1596 181 74.809 181 98L181 263C181 283.369 175.171 314.691 185.349 333C195.316 350.93 213.187 350 231 350L326 350C340.824 350 358.534 352.639 373 349.319C402.754 342.491 399 310.392 399 287L399 121C399 100.461 404.834 69.2169 393.535 51.0895C382.881 33.9944 363.416 36 346 36L254 36C239.286 36 222.465 33.7386 208 36.4676z"/>
<path style="fill:#65586c; stroke:none;" d="M372 36L373 37L372 36z"/>
<path style="fill:#a7607a; stroke:none;" d="M373 36L374 37L373 36z"/>
<path style="fill:#65586c; stroke:none;" d="M203 37L204 38L203 37M376 37L377 38L376 37z"/>
<path style="fill:#a7607a; stroke:none;" d="M200 38L201 39L200 38z"/>
<path style="fill:#65586c; stroke:none;" d="M201 38L202 39L201 38M378 38L379 39L378 38z"/>
<path style="fill:#a7607a; stroke:none;" d="M198 39L199 40L198 39z"/>
<path style="fill:#65586c; stroke:none;" d="M199 39L200 40L199 39M380 39L381 40L380 39z"/>
<path style="fill:#a7607a; stroke:none;" d="M381 39L382 40L381 39z"/>
<path style="fill:#65586c; stroke:none;" d="M197 40L198 41L197 40M382 40L383 41L382 40z"/>
<path style="fill:#a7607a; stroke:none;" d="M195 41L196 42L195 41M384 41L385 42L384 41z"/>
<path style="fill:#65586c; stroke:none;" d="M194 42L195 43L194 42M384.667 42.3333L385.333 42.6667L384.667 42.3333z"/>
<path style="fill:#a7607a; stroke:none;" d="M191 44L190 46L191 44z"/>
<path style="fill:#65586c; stroke:none;" d="M191 45L192 46L191 45z"/>
<path style="fill:#a7607a; stroke:none;" d="M389 45L390 46L389 45z"/>
<path style="fill:#65586c; stroke:none;" d="M189 47L190 48L189 47M390 47L391 48L390 47M188 48L189 49L188 48M187 49L188 50L187 49M392 49L393 50L392 49z"/>
<path style="fill:#a7607a; stroke:none;" d="M186 50L187 51L186 50z"/>
<path style="fill:#65586c; stroke:none;" d="M212 50L212 51L368 51C355.83 45.8935 334.253 50 321 50L212 50z"/>
<path style="fill:#a7607a; stroke:none;" d="M393 50L394 51L393 50z"/>
<path style="fill:#65586c; stroke:none;" d="M208 51L209 52L208 51z"/>
<path style="fill:#a7607a; stroke:none;" d="M209 51L210 52L209 51z"/>
<path style="fill:#ffffff; stroke:none;" d="M198 63L382 63C377.037 47.5879 358.773 51 346 51L237 51C223.741 51 203.19 46.8816 198 63z"/>
<path style="fill:#a7607a; stroke:none;" d="M370 51L371 52L370 51z"/>
<path style="fill:#65586c; stroke:none;" d="M371 51L372 52L371 51M185 52L186 53L185 52M206 52L207 53L206 52M373 52L374 53L373 52z"/>
<path style="fill:#a7607a; stroke:none;" d="M394 52L395 53L394 52z"/>
<path style="fill:#65586c; stroke:none;" d="M204 53L205 54L204 53M375 53L376 54L375 53z"/>
<path style="fill:#a7607a; stroke:none;" d="M184 54L185 55L184 54M203 54L204 55L203 54z"/>
<path style="fill:#65586c; stroke:none;" d="M376.667 54.3333L377.333 54.6667L376.667 54.3333z"/>
<path style="fill:#a7607a; stroke:none;" d="M395 54L396 55L395 54z"/>
<path style="fill:#65586c; stroke:none;" d="M201 55L202 56L201 55z"/>
<path style="fill:#a7607a; stroke:none;" d="M202 55L203 56L202 55M377 55L378 56L377 55M183 56L184 57L183 56M396 56L397 57L396 56z"/>
<path style="fill:#65586c; stroke:none;" d="M183 57L184 58L183 57z"/>
<path style="fill:#a7607a; stroke:none;" d="M200 57L201 58L200 57M379 57L380 58L379 57z"/>
<path style="fill:#65586c; stroke:none;" d="M396 57L397 58L396 57M199 58L200 59L199 58M380 58L381 59L380 58z"/>
<path style="fill:#a7607a; stroke:none;" d="M182 59L183 60L182 59z"/>
<path style="fill:#65586c; stroke:none;" d="M198 59L199 60L198 59z"/>
<path style="fill:#a7607a; stroke:none;" d="M397 59L398 60L397 59M198 60L199 61L198 60M381 60L382 61L381 60M197.333 62.6667L197.667 63.3333L197.333 62.6667M382 62L383 63L382 62M398.333 62.6667L398.667 63.3333L398.333 62.6667M181 63L182 64L181 63z"/>
<path style="fill:#f96b7a; stroke:none;" d="M197 126L328 126L363 126L379 125L379 136L381 136L383.568 120.996L383 63L244 63L210 63L197.938 64.6034L197 81L197 126z"/>
<path style="fill:#65586c; stroke:none;" d="M181.333 64.6667L181.667 65.3333L181.333 64.6667M196.333 64.6667L196.667 65.3333L196.333 64.6667M383.333 64.6667L383.667 65.3333L383.333 64.6667M398.333 64.6667L398.667 65.3333L398.333 64.6667z"/>
<path style="fill:#a7607a; stroke:none;" d="M196.333 66.6667L196.667 67.3333L196.333 66.6667M383 66L383 120L384 120L384 84L383 66M196 72L196 137L198 137L197 127L200.603 135.972L213 137L247 137L376 137L376 128L378 128L377 137L384 137L384 124C380.103 127.42 380.964 131.148 381 136L379 136L379 125L365 126L331 126L239 126L197 126L197 90L196 72M209 76L213 74L209 76z"/>
<path style="fill:#65586c; stroke:none;" d="M213.667 73.3333L214.333 73.6667L213.667 73.3333z"/>
<path style="fill:#a7607a; stroke:none;" d="M215 73L216 74L215 73z"/>
<path style="fill:#343b5a; stroke:none;" d="M211.433 75.0432C206.278 78.3926 208.258 100.381 209.148 105.995C209.637 109.078 212.216 112.725 215.772 110.914C221.758 107.865 219.902 84.8566 218.772 79.044C218.134 75.7628 214.779 72.8693 211.433 75.0432z"/>
<path style="fill:#65586c; stroke:none;" d="M216 74L217 75L216 74z"/>
<path style="fill:#a7607a; stroke:none;" d="M217 74L218 75L217 74M218 75L219 76L218 75z"/>
<path style="fill:#65586c; stroke:none;" d="M209 76L210 77L209 76M218 76L219 77L218 76z"/>
<path style="fill:#a7607a; stroke:none;" d="M208 79L208 104L209 104L208 79M208.333 106.667L208.667 107.333L208.333 106.667z"/>
<path style="fill:#65586c; stroke:none;" d="M218.333 108.667L218.667 109.333L218.333 108.667M209 109L212 112L209 109z"/>
<path style="fill:#a7607a; stroke:none;" d="M209 110L210 111L209 110z"/>
<path style="fill:#65586c; stroke:none;" d="M217 110L216 112L217 110z"/>
<path style="fill:#a7607a; stroke:none;" d="M210 111L211 112L210 111M217 111L218 112L217 111M213 112L213 113L216 113L213 112z"/>
<path style="fill:#f96b7a; stroke:none;" d="M197 127L200 137L197 127M376 128L376 137L377 137L378 128L376 128z"/>
<path style="fill:#65586c; stroke:none;" d="M195 136L196 137L195 136z"/>
<path style="fill:#a7607a; stroke:none;" d="M196 152L197 153L196 152z"/>
<path style="fill:#ffffff; stroke:none;" d="M197.603 153.028C194.817 155.234 194.979 164.754 198.318 166.397C204.522 169.449 217.127 167 224 167L340 167L372 167C374.98 167 380.853 168.073 382.972 165.397C385.292 162.468 384.897 153.519 380.852 152.318C372.28 149.773 359.94 152 351 152L238 152L209 152C205.878 152 200.221 150.954 197.603 153.028z"/>
<path style="fill:#a7607a; stroke:none;" d="M383 152L384 153L383 152z"/>
<path style="fill:#f96b7a; stroke:none;" d="M196 166L197 216L197 315L244 316L332 316L364 316L376 314L377 314L378 328L375 329L375 330L380 328L378 318L382 318L382 317L378 317L379 314L382 316L383 276L383 200L384 166C371.803 168.904 357.506 167 345 167L270 167C246.814 167 218.548 171.368 196 166z"/>
<path style="fill:#a7607a; stroke:none;" d="M196 167L196 281L196 309L198 320L197 322L197 323L198 323L199 321L200 325L198 324L204 329L204 330L202 331L205 332L207 330L207 334L208 334L207 332L208 332C220.759 337.326 236.369 335 250 335L330 335C343.535 335 360.825 337.989 373 332L373 333L371 333L371 334L379 328L375 330L375 329L378 328L377 314L376 314C372.112 316.945 366.716 316 362 316L329 316C285.799 316 239.835 320.413 197 315L197 211C197 198.532 200.807 178.456 196 167M383 167L383 264L382 316L379 314L378 315L378 316L378 317L382 317L382 318L378 318L378 327L381 327C386.028 313.943 384 298.829 384 285L384 209C384 197.056 387.607 177.98 383 167M212 203L212 204L216 204L212 203M210 204L209 206L210 204z"/>
<path style="fill:#65586c; stroke:none;" d="M211 204L209 207L211 204z"/>
<path style="fill:#343b5a; stroke:none;" d="M212.147 205.086C206.21 208.014 208.184 231.144 209.148 236.956C209.683 240.179 212.546 242.655 215.853 240.928C221.764 237.841 219.782 215.871 218.852 210.005C218.351 206.844 215.75 203.31 212.147 205.086z"/>
<path style="fill:#65586c; stroke:none;" d="M216 204L218 206L216 204z"/>
<path style="fill:#a7607a; stroke:none;" d="M217 204L218 205L217 204M218 206L219 207L218 206z"/>
<path style="fill:#65586c; stroke:none;" d="M211 207L212 208L211 207z"/>
<path style="fill:#a7607a; stroke:none;" d="M208 208L208 237L209 237L208 208z"/>
<path style="fill:#65586c; stroke:none;" d="M218 239L216 242L218 239z"/>
<path style="fill:#a7607a; stroke:none;" d="M209 240L210 241L209 240M218 240L219 241L218 240M210 241L211 242L210 241z"/>
<path style="fill:#65586c; stroke:none;" d="M211 241L212 242L211 241z"/>
<path style="fill:#a7607a; stroke:none;" d="M217 241L218 242L217 241M212 242L212 243L216 243L212 242z"/>
<path style="fill:#f96b7a; stroke:none;" d="M198 316L199 317L198 316M198 319L198 320L376 320L359 319L323 319L198 319z"/>
<path style="fill:#65586c; stroke:none;" d="M181.333 320.667L181.667 321.333L181.333 320.667M196.333 320.667L196.667 321.333L196.333 320.667z"/>
<path style="fill:#f96b7a; stroke:none;" d="M197 320L198 321L197 320M380 320L381 323L379 322L380 325L381 325L380 320z"/>
<path style="fill:#65586c; stroke:none;" d="M383 320L384 321L383 320M398.333 320.667L398.667 321.333L398.333 320.667z"/>
<path style="fill:#f96b7a; stroke:none;" d="M198 321L199 325L200 325L198 321z"/>
<path style="fill:#a7607a; stroke:none;" d="M181 322L182 323L181 322M398 322L399 323L398 322z"/>
<path style="fill:#65586c; stroke:none;" d="M197 323L198 324L197 323M382 323L383 324L382 323M198 325L199 326L198 325M381 325L382 326L381 325z"/>
<path style="fill:#a7607a; stroke:none;" d="M182 326L183 327L182 326M397 326L398 327L397 326z"/>
<path style="fill:#65586c; stroke:none;" d="M199 327L200 328L199 327M380 327L381 328L380 327z"/>
<path style="fill:#f96b7a; stroke:none;" d="M204.667 328.333L205.333 328.667L204.667 328.333M207 329L207 330L214 334C227.219 331.546 241.582 333 255 333C293.774 333 335.865 337.457 374 331L374 330L370 330L370 329L373 329L373 328L368 329L370 330L370 331L267 331L208 330L208 329L360 330L360 328L256 328C240.93 328 221.462 324.805 207 329z"/>
<path style="fill:#65586c; stroke:none;" d="M379 328L380 329L379 328z"/>
<path style="fill:#a7607a; stroke:none;" d="M183 329L184 330L183 329z"/>
<path style="fill:#65586c; stroke:none;" d="M201 329L202 330L201 329z"/>
<path style="fill:#f96b7a; stroke:none;" d="M202.667 329.333L203.333 329.667L202.667 329.333z"/>
<path style="fill:#65586c; stroke:none;" d="M378 329L379 330L378 329z"/>
<path style="fill:#a7607a; stroke:none;" d="M396 329L397 330L396 329z"/>
<path style="fill:#f96b7a; stroke:none;" d="M204 330L207 332L204 330z"/>
<path style="fill:#65586c; stroke:none;" d="M377 330L378 331L377 330z"/>
<path style="fill:#a7607a; stroke:none;" d="M184 331L185 332L184 331z"/>
<path style="fill:#65586c; stroke:none;" d="M203 331L204 332L203 331M376 331L377 332L376 331M395 331L396 332L395 331M204.667 332.333L205.333 332.667L204.667 332.333z"/>
<path style="fill:#f96b7a; stroke:none;" d="M207 332L207 333L214 335L214 334L207 332M370 334L373 333L370 334z"/>
<path style="fill:#65586c; stroke:none;" d="M375 332L376 333L375 332z"/>
<path style="fill:#a7607a; stroke:none;" d="M185 333L186 334L185 333z"/>
<path style="fill:#65586c; stroke:none;" d="M206 333L207 334L206 333M373 333L374 334L373 333z"/>
<path style="fill:#a7607a; stroke:none;" d="M394 333L395 334L394 333z"/>
<path style="fill:#65586c; stroke:none;" d="M209 334L210 335L209 334z"/>
<path style="fill:#a7607a; stroke:none;" d="M210.667 334.333L211.333 334.667L210.667 334.333z"/>
<path style="fill:#65586c; stroke:none;" d="M370 334L371 335L370 334M393 334L394 335L393 334z"/>
<path style="fill:#a7607a; stroke:none;" d="M186 335L187 336L186 335z"/>
<path style="fill:#65586c; stroke:none;" d="M214 335L214 336L368 336C356.068 330.993 334.991 335 322 335L214 335z"/>
<path style="fill:#a7607a; stroke:none;" d="M393 335L394 336L393 335z"/>
<path style="fill:#65586c; stroke:none;" d="M187 336L188 337L187 336z"/>
<path style="fill:#a7607a; stroke:none;" d="M392 336L393 337L392 336z"/>
<path style="fill:#65586c; stroke:none;" d="M188 337L189 338L188 337M391 337L392 338L391 337z"/>
<path style="fill:#a7607a; stroke:none;" d="M190 340L191 341L190 340M191 341L192 342L191 341M388 341L389 342L388 341z"/>
<path style="fill:#65586c; stroke:none;" d="M195 342L196 343L195 342M194 343L195 344L194 343M385 343L386 344L385 343z"/>
<path style="fill:#a7607a; stroke:none;" d="M195 344L196 345L195 344M384 344L385 345L384 344z"/>
<path style="fill:#65586c; stroke:none;" d="M197 345L198 346L197 345M382 345L383 346L382 345z"/>
<path style="fill:#a7607a; stroke:none;" d="M198 346L199 347L198 346z"/>
<path style="fill:#65586c; stroke:none;" d="M380 346L381 347L380 346z"/>
<path style="fill:#a7607a; stroke:none;" d="M381 346L382 347L381 346M200 347L201 348L200 347z"/>
<path style="fill:#65586c; stroke:none;" d="M201 347L202 348L201 347M378 347L379 348L378 347z"/>
<path style="fill:#a7607a; stroke:none;" d="M379 347L380 348L379 347z"/>
<path style="fill:#65586c; stroke:none;" d="M203 348L204 349L203 348M376 348L377 349L376 348z"/>
<path style="fill:#a7607a; stroke:none;" d="M206 349L207 350L206 349z"/>
<path style="fill:#65586c; stroke:none;" d="M207 349L208 350L207 349M372 349L373 350L372 349z"/>
<path style="fill:#a7607a; stroke:none;" d="M373 349L374 350L373 349M211 350L211 351L369 351C356.831 345.893 335.253 350 322 350L211 350z"/>
</svg>
